<svg width="28" height="28" viewBox="0 0 28 28" fill="none" xmlns="http://www.w3.org/2000/svg">
<path d="M9.95455 24.2865C7.895 23.4803 6.20897 22.1548 4.89647 20.3099C3.58397 18.4648 2.92772 16.3637 2.92772 14.0064C2.92772 13.4485 2.96505 12.8985 3.03972 12.3562C3.11458 11.814 3.2365 11.2835 3.40547 10.7645L1.46939 11.8886L0.605469 10.3807L5.66034 7.46432L8.57701 12.5011L7.0513 13.3872L5.38647 10.4997C5.15022 11.0471 4.97483 11.6158 4.8603 12.2059C4.74597 12.7961 4.6888 13.4 4.6888 14.0178C4.6888 16.0085 5.25833 17.7974 6.39739 19.3844C7.53625 20.9713 9.01733 22.0931 10.8406 22.7497L9.95455 24.2865ZM17.9147 9.90499V8.15528H21.2397C20.3529 7.04694 19.2775 6.19022 18.0136 5.58511C16.7497 4.98 15.4117 4.67744 13.9997 4.67744C12.848 4.67744 11.7658 4.87082 10.7531 5.25757C9.74047 5.64412 8.82814 6.18371 8.01614 6.87632L7.12976 5.32815C8.07962 4.58032 9.13371 3.99329 10.292 3.56707C11.4505 3.14085 12.6827 2.92773 13.9886 2.92773C15.5171 2.92773 16.9702 3.22387 18.3478 3.81615C19.7253 4.40843 20.942 5.26398 21.9981 6.38282V4.07194H23.7481V9.90499H17.9147ZM17.6163 27.349L12.5615 24.4212L15.4781 19.3955L16.9858 20.2705L15.2448 23.2522C17.5468 22.9367 19.4666 21.9039 21.0041 20.1539C22.5417 18.4039 23.3106 16.3525 23.3106 13.9997C23.3106 13.6886 23.2945 13.3883 23.2624 13.0987C23.2302 12.8094 23.1759 12.5226 23.0997 12.2383H24.8899C24.9469 12.5226 24.9896 12.8076 25.018 13.0932C25.0464 13.3788 25.0606 13.6773 25.0606 13.9886C25.0606 16.5687 24.2704 18.8567 22.6902 20.8527C21.1099 22.8487 19.0768 24.1429 16.5908 24.7354L18.4913 25.8414L17.6163 27.349Z" fill="#658DF7"/>
</svg>
