<svg width="28" height="28" viewBox="0 0 28 28" fill="none" xmlns="http://www.w3.org/2000/svg">
<path d="M13.1237 22.8308V14.5025L5.83203 10.2801V18.4065C5.83203 18.4662 5.847 18.5223 5.87695 18.5748C5.90689 18.6271 5.95171 18.6719 6.01141 18.7092L13.1237 22.8308ZM14.8737 22.8308L21.986 18.7092C22.0457 18.6719 22.0905 18.6271 22.1204 18.5748C22.1504 18.5223 22.1654 18.4662 22.1654 18.4065V10.2801L14.8737 14.5025V22.8308ZM12.9443 24.74L5.1367 20.246C4.80459 20.0547 4.54578 19.799 4.36028 19.479C4.17478 19.1587 4.08203 18.8071 4.08203 18.4243V9.5757C4.08203 9.19284 4.17478 8.84128 4.36028 8.52103C4.54578 8.20098 4.80459 7.94528 5.1367 7.75395L12.9443 3.25995C13.2762 3.06842 13.6277 2.97266 13.9987 2.97266C14.3697 2.97266 14.7212 3.06842 15.0531 3.25995L22.8607 7.75395C23.1928 7.94528 23.4516 8.20098 23.6371 8.52103C23.8226 8.84128 23.9154 9.19284 23.9154 9.5757V18.4243C23.9154 18.8071 23.8226 19.1587 23.6371 19.479C23.4516 19.799 23.1928 20.0547 22.8607 20.246L15.0531 24.74C14.7212 24.9316 14.3697 25.0273 13.9987 25.0273C13.6277 25.0273 13.2762 24.9316 12.9443 24.74ZM18.4971 10.3833L21.2029 8.83078L14.1781 4.76757C14.1184 4.73024 14.0586 4.71157 13.9987 4.71157C13.9388 4.71157 13.879 4.73024 13.8193 4.76757L11.2862 6.22591L18.4971 10.3833ZM13.9987 12.9949L16.7112 11.4243L9.50703 7.26016L6.79453 8.83078L13.9987 12.9949Z" fill="#FFAF91"/>
</svg>
