<svg width="28" height="28" viewBox="0 0 28 28" fill="none" xmlns="http://www.w3.org/2000/svg">
<path d="M16.044 14.8301C15.2288 14.8301 14.539 14.5478 13.9743 13.9831C13.4096 13.4184 13.1273 12.7285 13.1273 11.9134C13.1273 11.0983 13.4096 10.4084 13.9743 9.84377C14.539 9.2791 15.2288 8.99677 16.044 8.99677C16.8591 8.99677 17.549 9.2791 18.1136 9.84377C18.6783 10.4084 18.9606 11.0983 18.9606 11.9134C18.9606 12.7285 18.6783 13.4184 18.1136 13.9831C17.549 14.5478 16.8591 14.8301 16.044 14.8301ZM8.34833 18.4424C7.7685 18.4424 7.27208 18.2359 6.85908 17.8229C6.44608 17.4099 6.23958 16.9134 6.23958 16.3333V7.49352C6.23958 6.91368 6.44608 6.41727 6.85908 6.00427C7.27208 5.59127 7.7685 5.38477 8.34833 5.38477H23.7393C24.3193 5.38477 24.8158 5.59127 25.2288 6.00427C25.6418 6.41727 25.8483 6.91368 25.8483 7.49352V16.3333C25.8483 16.9134 25.6418 17.4099 25.2288 17.8229C24.8158 18.2359 24.3193 18.4424 23.7393 18.4424H8.34833ZM10.0983 16.6924H21.9896C21.9896 16.1106 22.1961 15.6136 22.6091 15.2014C23.0221 14.7894 23.5185 14.5833 24.0983 14.5833V9.24352C23.5166 9.24352 23.0197 9.03702 22.6076 8.62402C22.1956 8.21102 21.9896 7.7146 21.9896 7.13477H10.0983C10.0983 7.71654 9.89183 8.21345 9.47883 8.62547C9.06583 9.0375 8.56942 9.24352 7.98958 9.24352V14.5833C8.57136 14.5833 9.06826 14.7898 9.48029 15.2028C9.89232 15.6158 10.0983 16.1124 10.0983 16.6924ZM22.3708 22.5257H4.26529C3.68526 22.5257 3.18875 22.3192 2.77575 21.9062C2.36275 21.4932 2.15625 20.9967 2.15625 20.4167V8.86231H3.90625V20.4167C3.90625 20.5063 3.94358 20.5886 4.01825 20.6634C4.09311 20.7383 4.17546 20.7757 4.26529 20.7757H22.3708V22.5257ZM8.34833 16.6924H7.98958V7.13477H8.34833C8.25111 7.13477 8.16701 7.17025 8.09604 7.24122C8.02507 7.3122 7.98958 7.39629 7.98958 7.49352V16.3333C7.98958 16.4306 8.02507 16.5147 8.09604 16.5856C8.16701 16.6568 8.25111 16.6924 8.34833 16.6924Z" fill="#FF7D99"/>
</svg>
