<svg width="28" height="28" viewBox="0 0 28 28" fill="none" xmlns="http://www.w3.org/2000/svg">
<path d="M14.0013 25.0837C12.4817 25.0837 11.0477 24.7924 9.69922 24.2098C8.35075 23.6273 7.17475 22.8341 6.17122 21.8304C5.1675 20.8269 4.37436 19.6509 3.7918 18.3024C3.20925 16.9539 2.91797 15.5199 2.91797 14.0003C2.91797 12.4687 3.20925 11.0316 3.7918 9.6892C4.37436 8.34676 5.1675 7.17377 6.17122 6.17024C7.17475 5.16652 8.35075 4.37338 9.69922 3.79083C11.0477 3.20827 12.4817 2.91699 14.0013 2.91699C15.5329 2.91699 16.97 3.20827 18.3124 3.79083C19.6549 4.37338 20.8279 5.16652 21.8314 6.17024C22.8351 7.17377 23.6282 8.34676 24.2108 9.6892C24.7934 11.0316 25.0846 12.4687 25.0846 14.0003C25.0846 15.5199 24.7934 16.9539 24.2108 18.3024C23.6282 19.6509 22.8351 20.8269 21.8314 21.8304C20.8279 22.8341 19.6549 23.6273 18.3124 24.2098C16.97 24.7924 15.5329 25.0837 14.0013 25.0837ZM14.0013 23.3089C14.5967 22.5192 15.0978 21.7228 15.5046 20.9195C15.9113 20.1163 16.2427 19.2383 16.4986 18.2855H11.5041C11.7749 19.2682 12.11 20.1612 12.5094 20.9645C12.9086 21.7677 13.4059 22.5492 14.0013 23.3089ZM11.7421 22.988C11.2948 22.3464 10.8932 21.6169 10.5372 20.7997C10.1812 19.9822 9.90446 19.1442 9.70709 18.2855H5.74947C6.36566 19.4971 7.19205 20.515 8.22864 21.3392C9.26522 22.1633 10.4364 22.7129 11.7421 22.988ZM16.2606 22.988C17.5662 22.7129 18.7374 22.1633 19.774 21.3392C20.8106 20.515 21.6369 19.4971 22.2531 18.2855H18.2955C18.0606 19.1516 17.7652 19.9933 17.4091 20.8107C17.0533 21.6282 16.6704 22.354 16.2606 22.988ZM5.01564 16.5355H9.35272C9.27941 16.1019 9.22623 15.6767 9.19318 15.26C9.16032 14.8435 9.14389 14.4236 9.14389 14.0003C9.14389 13.577 9.16032 13.1571 9.19318 12.7406C9.22623 12.3239 9.27941 11.8988 9.35272 11.4652H5.01564C4.90344 11.8614 4.8175 12.2735 4.7578 12.7012C4.69791 13.129 4.66797 13.562 4.66797 14.0003C4.66797 14.4386 4.69791 14.8716 4.7578 15.2994C4.8175 15.7272 4.90344 16.1392 5.01564 16.5355ZM11.1024 16.5355H16.9002C16.9733 16.1019 17.0264 15.6805 17.0594 15.2714C17.0923 14.8623 17.1087 14.4386 17.1087 14.0003C17.1087 13.562 17.0923 13.1384 17.0594 12.7292C17.0264 12.3201 16.9733 11.8988 16.9002 11.4652H11.1024C11.0293 11.8988 10.9762 12.3201 10.9432 12.7292C10.9103 13.1384 10.8939 13.562 10.8939 14.0003C10.8939 14.4386 10.9103 14.8623 10.9432 15.2714C10.9762 15.6805 11.0293 16.1019 11.1024 16.5355ZM18.6499 16.5355H22.987C23.0992 16.1392 23.1851 15.7272 23.2448 15.2994C23.3047 14.8716 23.3346 14.4386 23.3346 14.0003C23.3346 13.562 23.3047 13.129 23.2448 12.7012C23.1851 12.2735 23.0992 11.8614 22.987 11.4652H18.6499C18.7232 11.8988 18.7764 12.3239 18.8094 12.7406C18.8423 13.1571 18.8587 13.577 18.8587 14.0003C18.8587 14.4236 18.8423 14.8435 18.8094 15.26C18.7764 15.6767 18.7232 16.1019 18.6499 16.5355ZM18.2955 9.71516H22.2531C21.6296 8.4886 20.8088 7.47069 19.7909 6.66141C18.773 5.85233 17.5962 5.29894 16.2606 5.00124C16.7078 5.68024 17.1056 6.42292 17.4541 7.22928C17.8027 8.03545 18.0832 8.86408 18.2955 9.71516ZM11.5041 9.71516H16.4986C16.2277 8.73983 15.887 7.8412 15.4766 7.01929C15.0659 6.19737 14.5741 5.42153 14.0013 4.69178C13.4285 5.42153 12.9367 6.19737 12.5261 7.01929C12.1156 7.8412 11.7749 8.73983 11.5041 9.71516ZM5.74947 9.71516H9.70709C9.91943 8.86408 10.1999 8.03545 10.5486 7.22928C10.897 6.42292 11.2948 5.68024 11.7421 5.00124C10.3988 5.29894 9.22021 5.85427 8.20618 6.66724C7.19196 7.48002 6.37305 8.49599 5.74947 9.71516Z" fill="#5BC495"/>
</svg>
