<svg width="1920" height="16" viewBox="0 0 1920 16" fill="none" xmlns="http://www.w3.org/2000/svg">
<path d="M0 0H529.038V6.40534L514.625 12.3702C502.931 17.2099 489.016 17.2099 477.321 12.3702C468.285 8.63046 457.532 8.63046 448.496 12.3702C436.801 17.2099 422.886 17.2099 411.192 12.3702C402.155 8.63046 391.402 8.63046 382.366 12.3702C370.672 17.2099 356.756 17.2099 345.062 12.3702C336.025 8.63046 325.272 8.63046 316.236 12.3702C304.542 17.2099 290.626 17.2099 278.932 12.3702C269.896 8.63046 259.143 8.63046 250.106 12.3702C238.412 17.2099 224.496 17.2099 212.802 12.3702C203.766 8.63046 193.013 8.63046 183.976 12.3702C172.282 17.2099 158.367 17.2099 146.672 12.3702C137.636 8.63046 126.883 8.63046 117.847 12.3702C106.153 17.2099 92.2368 17.2099 80.5427 12.3702C71.5063 8.63046 60.7533 8.63046 51.7169 12.3702C40.0228 17.2099 26.107 17.2099 14.4129 12.3702L0 6.40534V0Z" fill="#F6F7F8"/>
<path d="M465.717 0H994.755V6.40534L980.343 12.3702C968.648 17.2099 954.733 17.2099 943.039 12.3702C934.002 8.63046 923.249 8.63046 914.213 12.3702C902.519 17.2099 888.603 17.2099 876.909 12.3702C867.872 8.63046 857.119 8.63046 848.083 12.3702C836.389 17.2099 822.473 17.2099 810.779 12.3702C801.743 8.63046 790.99 8.63046 781.953 12.3702C770.259 17.2099 756.343 17.2099 744.649 12.3702C735.613 8.63046 724.86 8.63046 715.823 12.3702C704.129 17.2099 690.214 17.2099 678.519 12.3702C669.483 8.63046 658.73 8.63046 649.694 12.3702C638 17.2099 624.084 17.2099 612.39 12.3702C603.353 8.63046 592.6 8.63046 583.564 12.3702C571.87 17.2099 557.954 17.2099 546.26 12.3702C537.223 8.63046 526.47 8.63046 517.434 12.3702C505.74 17.2099 491.824 17.2099 480.13 12.3702L465.717 6.40534V0Z" fill="#F6F7F8"/>
<path d="M930.245 0H1459.28V6.40534L1444.87 12.3702C1433.18 17.2099 1419.26 17.2099 1407.57 12.3702C1398.53 8.63046 1387.78 8.63046 1378.74 12.3702C1367.05 17.2099 1353.13 17.2099 1341.44 12.3702C1332.4 8.63046 1321.65 8.63046 1312.61 12.3702C1300.92 17.2099 1287 17.2099 1275.31 12.3702C1266.27 8.63046 1255.52 8.63046 1246.48 12.3702C1234.79 17.2099 1220.87 17.2099 1209.18 12.3702C1200.14 8.63046 1189.39 8.63046 1180.35 12.3702C1168.66 17.2099 1154.74 17.2099 1143.05 12.3702C1134.01 8.63046 1123.26 8.63046 1114.22 12.3702C1102.53 17.2099 1088.61 17.2099 1076.92 12.3702C1067.88 8.63046 1057.13 8.63046 1048.09 12.3702C1036.4 17.2099 1022.48 17.2099 1010.79 12.3702C1001.75 8.63046 990.998 8.63046 981.962 12.3702C970.267 17.2099 956.352 17.2099 944.658 12.3702L930.245 6.40534V0Z" fill="#F6F7F8"/>
<path d="M1395.96 0H1925V6.40534L1910.59 12.3702C1898.89 17.2099 1884.98 17.2099 1873.28 12.3702C1864.25 8.63046 1853.49 8.63046 1844.46 12.3702C1832.76 17.2099 1818.85 17.2099 1807.15 12.3702C1798.12 8.63046 1787.36 8.63046 1778.33 12.3702C1766.63 17.2099 1752.72 17.2099 1741.02 12.3702C1731.99 8.63046 1721.23 8.63046 1712.2 12.3702C1700.5 17.2099 1686.59 17.2099 1674.89 12.3702C1665.86 8.63046 1655.1 8.63046 1646.07 12.3702C1634.37 17.2099 1620.46 17.2099 1608.76 12.3702C1599.73 8.63046 1588.97 8.63046 1579.94 12.3702C1568.24 17.2099 1554.33 17.2099 1542.63 12.3702C1533.6 8.63046 1522.84 8.63046 1513.81 12.3702C1502.11 17.2099 1488.2 17.2099 1476.5 12.3702C1467.47 8.63046 1456.72 8.63046 1447.68 12.3702C1435.98 17.2099 1422.07 17.2099 1410.37 12.3702L1395.96 6.40534V0Z" fill="#F6F7F8"/>
</svg>
