<svg width="1920" height="16" viewBox="0 0 1920 16" fill="none" xmlns="http://www.w3.org/2000/svg">
<path d="M1925 16H1395.96V9.59466L1410.37 3.62978C1422.07 -1.20992 1435.98 -1.20992 1447.68 3.62978C1456.71 7.36954 1467.47 7.36954 1476.5 3.62978C1488.2 -1.20992 1502.11 -1.20992 1513.81 3.62978C1522.84 7.36954 1533.6 7.36954 1542.63 3.62978C1554.33 -1.20992 1568.24 -1.20992 1579.94 3.62978C1588.97 7.36954 1599.73 7.36954 1608.76 3.62978C1620.46 -1.20992 1634.37 -1.20992 1646.07 3.62978C1655.1 7.36954 1665.86 7.36954 1674.89 3.62978C1686.59 -1.20992 1700.5 -1.20992 1712.2 3.62978C1721.23 7.36954 1731.99 7.36954 1741.02 3.62978C1752.72 -1.20992 1766.63 -1.20992 1778.33 3.62978C1787.36 7.36954 1798.12 7.36954 1807.15 3.62978C1818.85 -1.20992 1832.76 -1.20992 1844.46 3.62978C1853.49 7.36954 1864.25 7.36954 1873.28 3.62978C1884.98 -1.20992 1898.89 -1.20993 1910.59 3.62977L1925 9.59466V16Z" fill="#F6F7F8"/>
<path d="M1459.28 16H930.245V9.59466L944.657 3.62978C956.352 -1.20992 970.267 -1.20992 981.961 3.62978C990.998 7.36954 1001.75 7.36954 1010.79 3.62978C1022.48 -1.20992 1036.4 -1.20992 1048.09 3.62978C1057.13 7.36954 1067.88 7.36954 1076.92 3.62978C1088.61 -1.20992 1102.53 -1.20992 1114.22 3.62978C1123.26 7.36954 1134.01 7.36954 1143.05 3.62978C1154.74 -1.20992 1168.66 -1.20992 1180.35 3.62978C1189.39 7.36954 1200.14 7.36954 1209.18 3.62978C1220.87 -1.20992 1234.79 -1.20992 1246.48 3.62978C1255.52 7.36954 1266.27 7.36954 1275.31 3.62978C1287 -1.20992 1300.92 -1.20992 1312.61 3.62978C1321.65 7.36954 1332.4 7.36954 1341.44 3.62978C1353.13 -1.20992 1367.05 -1.20992 1378.74 3.62978C1387.78 7.36954 1398.53 7.36954 1407.57 3.62978C1419.26 -1.20992 1433.18 -1.20993 1444.87 3.62977L1459.28 9.59466V16Z" fill="#F6F7F8"/>
<path d="M994.755 16H465.717V9.59466L480.13 3.62978C491.824 -1.20992 505.74 -1.20992 517.434 3.62978C526.47 7.36954 537.223 7.36954 546.26 3.62978C557.954 -1.20992 571.87 -1.20992 583.564 3.62978C592.6 7.36954 603.353 7.36954 612.39 3.62978C624.084 -1.20992 637.999 -1.20992 649.693 3.62978C658.73 7.36954 669.483 7.36954 678.519 3.62978C690.213 -1.20992 704.129 -1.20992 715.823 3.62978C724.86 7.36954 735.613 7.36954 744.649 3.62978C756.343 -1.20992 770.259 -1.20992 781.953 3.62978C790.989 7.36954 801.742 7.36954 810.779 3.62978C822.473 -1.20992 836.389 -1.20992 848.083 3.62978C857.119 7.36954 867.872 7.36954 876.909 3.62978C888.603 -1.20992 902.518 -1.20992 914.213 3.62978C923.249 7.36954 934.002 7.36954 943.038 3.62978C954.733 -1.20992 968.648 -1.20993 980.342 3.62977L994.755 9.59466V16Z" fill="#F6F7F8"/>
<path d="M529.038 16H-0.00012207V9.59466L14.4127 3.62978C26.1068 -1.20992 40.0227 -1.20992 51.7168 3.62978C60.7532 7.36954 71.5061 7.36954 80.5425 3.62978C92.2367 -1.20992 106.152 -1.20992 117.847 3.62978C126.883 7.36954 137.636 7.36954 146.672 3.62978C158.366 -1.20992 172.282 -1.20992 183.976 3.62978C193.013 7.36954 203.766 7.36954 212.802 3.62978C224.496 -1.20992 238.412 -1.20992 250.106 3.62978C259.143 7.36954 269.896 7.36954 278.932 3.62978C290.626 -1.20992 304.542 -1.20992 316.236 3.62978C325.272 7.36954 336.025 7.36954 345.062 3.62978C356.756 -1.20992 370.672 -1.20992 382.366 3.62978C391.402 7.36954 402.155 7.36954 411.192 3.62978C422.886 -1.20992 436.801 -1.20992 448.495 3.62978C457.532 7.36954 468.285 7.36954 477.321 3.62978C489.015 -1.20992 502.931 -1.20993 514.625 3.62977L529.038 9.59466V16Z" fill="#F6F7F8"/>
</svg>
