<svg width="108" height="80" viewBox="0 0 108 80" fill="none" xmlns="http://www.w3.org/2000/svg">
<path d="M22.8155 63.8117L22.8204 63.8079C28.0412 59.7221 31.1077 54.2583 32.0116 47.4791L32.3036 45.2897L30.4657 46.5149C29.9206 46.8783 29.2674 47.1626 28.4922 47.3564C26.8447 47.7683 24.9689 47.9796 22.8571 47.9796C16.6091 47.9796 11.439 45.7045 7.27795 41.1314C3.08453 36.3053 1 30.7714 1 24.4898C1 18.2058 3.0856 12.7867 7.26991 8.18359C11.6332 3.40523 17.3411 1 24.4898 1C32.4643 1 38.5749 4.02082 42.9452 10.0559L42.9501 10.0627L42.9551 10.0694C47.3854 15.9764 49.6123 22.945 49.6123 31.0204C49.6123 39.4071 48.3222 46.6714 45.7723 52.8362C43.2059 58.8229 39.9031 63.8229 35.8738 67.8548C31.8447 71.6694 27.1819 74.5312 21.8766 76.4428C17.0867 78.0383 12.3057 78.8854 7.53061 78.9891V69.5527C13.0434 69.3458 18.1454 67.4204 22.8155 63.8117ZM79.9584 63.8117L79.9633 63.8079C85.184 59.7221 88.2506 54.2583 89.1545 47.4791L89.4464 45.2897L87.6086 46.5149C87.0635 46.8783 86.4103 47.1626 85.635 47.3564C83.9875 47.7683 82.1118 47.9796 80 47.9796C73.752 47.9796 68.5819 45.7045 64.4209 41.1315C60.2274 36.3055 58.1429 30.7715 58.1429 24.4898C58.1429 18.2062 60.2282 12.7873 64.412 8.18447C68.7753 3.40552 74.4835 1 81.6327 1C89.6072 1 95.7178 4.02082 100.088 10.0559L100.093 10.0627L100.098 10.0694C104.528 15.9764 106.755 22.945 106.755 31.0204C106.755 39.4073 105.465 46.6716 102.915 52.8365C100.349 58.823 97.0459 63.8229 93.0167 67.8548C88.9875 71.6694 84.3247 74.5313 79.0194 76.4429C74.2295 78.0383 69.4485 78.8854 64.6735 78.9891V69.5527C70.1863 69.3458 75.2882 67.4204 79.9584 63.8117Z" stroke="#020714" stroke-width="2"/>
</svg>
